<?xml version="1.0" encoding="UTF-8"?>
<!-- Created with Inkscape (http://www.inkscape.org/) -->
<svg xmlns="http://www.w3.org/2000/svg" xmlns:cc="http://creativecommons.org/ns#" xmlns:dc="http://purl.org/dc/elements/1.1/" xmlns:rdf="http://www.w3.org/1999/02/22-rdf-syntax-ns#" id="svg2" xml:space="preserve" height="82.149651" viewBox="0 0 483.99615 82.148906" width="484" version="1.1"><defs id="defs6"><clipPath id="clipPath42" clipPathUnits="userSpaceOnUse"><path id="path44" d="m0 385.51h277.8v-385.51h-277.8v385.51z" /></clipPath></defs><g id="g10" transform="matrix(2.1246538,0,0,-2.1246538,-37.16232,777.0729)"><g id="g38" transform="translate(-7.508,7.508)"><g id="g40" clip-path="url(#clipPath42)"><g id="g46" transform="translate(50.47,321.26)">
  <path id="path48" fill="#bbbbbb" d="m0 0c-1.926-0.857-5.19-1.605-9.525-1.605-9.525 0-15.946 5.832-15.946 15.357 0 8.08 3.638 14.394 9.096 18.033 3.747 2.622 8.188 3.853 13.271 3.853 3.907 0 6.85-0.91 7.866-1.552l-2.086-6.261c-1.071 0.535-3.425 1.177-6.529 1.177s-6.046-0.963-8.24-2.782c-3.051-2.462-4.977-6.582-4.977-11.612 0-5.726 3.211-9.579 9.579-9.579 2.514 0 5.03 0.429 6.849 1.178l0.642-6.207z" /></g><g id="g50" transform="translate(55.013,320.24)">
  <path id="path52" fill="#bbbbbb" d="m0 0 7.17 37.993h7.706l-2.89-15.144 0.107-0.053c2.141 2.408 4.87 3.959 8.348 3.959 4.067 0 6.582-2.568 6.582-7.063 0-1.231-0.214-3.211-0.481-4.709l-2.837-14.983h-7.705l2.675 14.341c0.214 1.017 0.375 2.14 0.375 3.264 0 1.712-0.749 2.943-2.676 2.943-2.675 0-5.404-3.264-6.421-8.562l-2.247-11.986h-7.706z" /></g><g id="g54" transform="translate(103.81,339.19)">
  <path id="path56" fill="#bbbbbb" d="m0 0c0 1.284-1.07 2.194-2.836 2.194-3.585 0-5.619-2.943-6.154-5.404 5.993-0.054 8.99 0.802 8.99 3.156v0.054zm3.96-17.444c-3.05-1.553-6.85-2.087-9.739-2.087-7.492 0-11.345 4.28-11.345 11.076 0 7.973 5.78 16.268 15.251 16.268 5.298 0 9.097-2.943 9.097-7.813 0-6.689-6.475-9.097-16.963-8.83 0-0.748 0.268-1.925 0.802-2.675 1.018-1.338 2.783-2.033 5.031-2.033 2.836 0 5.244 0.642 7.331 1.659l0.535-5.565z" /></g><g id="g58" transform="translate(132.49,321.05)">
  <path id="path60" fill="#bbbbbb" d="m0 0c-1.659-0.803-4.334-1.391-7.438-1.391-6.475 0-11.023 3.959-11.023 10.756 0 9.31 7.117 16.588 17.07 16.588 2.247 0 4.174-0.428 5.298-0.856l-1.873-5.94c-0.91 0.374-1.98 0.642-3.532 0.642-5.512 0-8.883-4.655-8.883-9.578 0-3.586 2.248-5.405 5.137-5.405 2.247 0 3.853 0.535 5.191 1.07l0.053-5.886z" /></g><g id="g62" transform="translate(137.72,320.24)">
  <path id="path64" fill="#bbbbbb" d="m0 0 7.17 37.993h7.652l-4.281-22.743h0.107c0.803 1.018 1.606 2.034 2.355 2.997l6.688 7.92 3.693-5.689-5.351-5.067 7.278-15.411h-8.563l-4.602 11.184-2.889-2.783-1.605-8.401h-7.652z" /></g><g id="g66" transform="translate(205.61,349.59)">
  <path id="path68" fill="#bbbbbb" d="m0 0c-2.086 0-3.691 1.445-3.691 3.746 0.052 2.622 2.086 4.388 4.441 4.388 2.247 0 3.853-1.498 3.853-3.8 0-2.729-2.087-4.334-4.549-4.334h-0.054zm-9.738-29.431 4.976 26.167h7.705l-4.976-26.167h-7.705z" /></g><g id="g70" transform="translate(211.28,327.06)">
  <path id="path72" fill="#bbbbbb" d="m0 0c1.499-0.749 4.335-1.819 6.85-1.819 2.194 0 3.318 1.07 3.318 2.355 0 1.284-0.856 2.193-3.264 3.371-3.05 1.498-5.566 3.692-5.566 6.956 0 5.405 4.764 8.99 11.506 8.99 3.049 0 5.458-0.589 6.742-1.338l-1.82-5.458c-1.123 0.535-2.943 1.177-5.245 1.177-2.033 0-3.423-0.909-3.423-2.301 0-1.07 1.07-1.98 3.211-2.996 2.836-1.445 5.832-3.532 5.832-7.171 0-5.993-5.084-9.311-11.987-9.257-3.317 0.107-6.474 0.909-8.026 2.087l1.872 5.404z" /></g><g id="g74" transform="translate(248.57,353.45)">
  <path id="path76" fill="#bbbbbb" d="m0 0-1.338-7.117h5.567l-1.125-5.833h-5.565l-1.766-8.883c-0.214-1.017-0.428-2.407-0.428-3.317 0-1.285 0.536-2.194 2.194-2.194 0.695 0 1.445 0 2.141 0.107l-0.91-6.047c-0.963-0.375-2.889-0.588-4.549-0.588-4.602 0-6.795 2.408-6.795 5.672 0 1.444 0.16 2.836 0.535 4.869l2.033 10.381h-3.318l1.07 5.833h3.371l0.963 4.923 7.92 2.194z" /></g><g id="g78" transform="translate(161.15,350.11)">
  <path id="path80" fill="#c12d00" d="m0 0 18.016-29.967 15.791 17.356-5.936 5.935-8.795-11.764-11.87 26.07-7.206-7.63z" /></g></g></g></g></svg>